# xmcd
#
# Track frame offsets:
#  182
#  13412
#  24162
#  41182
#  51812
#  65397
#  79402
#  90437
#  100855
#  116740
#  131010
#  146300
#
# Disc length: 2119 seconds
#
# Revision: 0
# Processed by: cddbd v1.5.1PL2 Copyright (c) Steve Scherf et al.
# Submitted via: Collectorz.com_Music_Collector 6.10
#
DISCID=9e08450c
DTITLE=Alison Krauss - I've Got That Old Feeling
DYEAR=1990
DGENRE=Bluegrass
TTITLE0=I've Got That Old Feeling
TTITLE1=Dark Skies
TTITLE2=Wish I Still Had You
TTITLE3=Endless Highway
TTITLE4=Winter Of A Broken Heart
TTITLE5=It's Over
TTITLE6=Will You Be Leaving
TTITLE7=Steel Rails
TTITLE8=Tonight I'll Be Lonely Too
TTITLE9=One Good Reason
TTITLE10=That Makes One Of Us
TTITLE11=Longest Highway
EXTD=
EXTT0=
EXTT1=
EXTT2=
EXTT3=
EXTT4=
EXTT5=
EXTT6=
EXTT7=
EXTT8=
EXTT9=
EXTT10=
EXTT11=
PLAYORDER=
